<svg width="24" height="24" viewBox="0 0 24 24" fill="none" xmlns="http://www.w3.org/2000/svg">
<g clip-path="url(#clip0_2946_2346)">
<path d="M12 22.5C17.799 22.5 22.5 17.799 22.5 12C22.5 6.20098 17.799 1.49997 12 1.49997C6.20101 1.49997 1.5 6.20098 1.5 12C1.5 17.799 6.20101 22.5 12 22.5Z" stroke="#93A2B8" stroke-width="1.5" stroke-miterlimit="10"/>
<path d="M12.9609 4.35997L15.8209 7.22997L12.9609 10.09" stroke="#93A2B8" stroke-width="1.5" stroke-miterlimit="10"/>
<path d="M12.9609 4.35997L15.8209 7.22997L12.9609 10.09" stroke="#93A2B8" stroke-width="1.5" stroke-miterlimit="10"/>
<path d="M11.0397 13.91L8.17969 16.77L11.0397 19.64" stroke="#93A2B8" stroke-width="1.5" stroke-miterlimit="10"/>
<path d="M17.7297 11.05C17.727 12.5679 17.1222 14.0228 16.0479 15.0952C14.9736 16.1677 13.5176 16.77 11.9997 16.77H8.17969" stroke="#93A2B8" stroke-width="1.5" stroke-miterlimit="10"/>
<path d="M17.7297 11.05C17.727 12.5679 17.1222 14.0228 16.0479 15.0952C14.9736 16.1677 13.5176 16.77 11.9997 16.77H8.17969" stroke="#93A2B8" stroke-width="1.5" stroke-miterlimit="10"/>
<path d="M6.26967 13C6.26439 12.2441 6.40871 11.4947 6.69431 10.7949C6.9799 10.0951 7.40114 9.45869 7.93374 8.92237C8.46635 8.38604 9.0998 7.9604 9.79762 7.66994C10.4954 7.37948 11.2438 7.22995 11.9997 7.22997H15.8197" stroke="#93A2B8" stroke-width="1.5" stroke-miterlimit="10"/>
</g>
<defs>
<clipPath id="clip0_2946_2346">
<rect width="24" height="24" fill="white"/>
</clipPath>
</defs>
</svg>
