<svg width="24" height="24" viewBox="0 0 24 24" fill="none" xmlns="http://www.w3.org/2000/svg">
<g clip-path="url(#clip0_2946_2337)">
<path d="M13.1092 16.55L7.44922 10.89L14.7192 3.61997C15.67 2.66886 16.8668 2.00135 18.1756 1.69226C19.4844 1.38316 20.8534 1.4447 22.1292 1.86997C22.5545 3.14576 22.616 4.51479 22.3069 5.82359C21.9978 7.13239 21.3303 8.32924 20.3792 9.27997L13.1092 16.55Z" stroke="#93A2B8" stroke-width="1.5" stroke-miterlimit="10"/>
<path d="M14.8502 9.99997C15.3693 9.99997 15.7902 9.59255 15.7902 9.08997C15.7902 8.58739 15.3693 8.17997 14.8502 8.17997C14.331 8.17997 13.9102 8.58739 13.9102 9.08997C13.9102 9.59255 14.331 9.99997 14.8502 9.99997Z" stroke="#93A2B8" stroke-width="1.5" stroke-miterlimit="10"/>
<path d="M9.57023 17.26L6.74023 14.43L8.16023 11.6L12.4002 15.84L9.57023 17.26Z" stroke="#93A2B8" stroke-width="1.5" stroke-miterlimit="10"/>
<path d="M15.9395 13.7248C16.3109 14.0962 16.6055 14.5372 16.8065 15.0225C17.0076 15.5078 17.111 16.0279 17.111 16.5532C17.111 17.0785 17.0076 17.5986 16.8065 18.0839C16.6055 18.5692 16.3109 19.0102 15.9395 19.3816L13.8181 21.503C13.068 20.7528 12.6466 19.7354 12.6466 18.6745C12.6466 17.6137 13.068 16.5962 13.8181 15.8461L15.9395 13.7248Z" stroke="#93A2B8" stroke-width="1.5" stroke-miterlimit="10"/>
<path d="M2.50165 10.1934L4.62297 8.07208C5.37312 7.32193 6.39053 6.90051 7.4514 6.90051C8.51226 6.90051 9.52968 7.32193 10.2798 8.07208L8.15851 10.1934C7.40836 10.9435 6.39094 11.365 5.33008 11.365C4.26921 11.365 3.2518 10.9435 2.50165 10.1934Z" stroke="#93A2B8" stroke-width="1.5" stroke-miterlimit="10"/>
<path d="M3.73009 16.27C3.99082 15.9689 4.30888 15.7228 4.66572 15.546C5.02256 15.3691 5.41104 15.2651 5.8085 15.24C6.20596 15.2148 6.60444 15.2691 6.98072 15.3996C7.35699 15.5301 7.70352 15.7342 8.00009 16C8.26589 16.2965 8.46999 16.6431 8.60047 17.0193C8.73095 17.3956 8.78521 17.7941 8.76008 18.1916C8.73494 18.589 8.63093 18.9775 8.45409 19.3343C8.27725 19.6912 8.03113 20.0092 7.73009 20.27C5.45009 22.55 1.50009 22.5 1.50009 22.5C1.50009 22.5 1.45009 18.55 3.73009 16.27Z" stroke="#93A2B8" stroke-width="1.5" stroke-miterlimit="10"/>
</g>
<defs>
<clipPath id="clip0_2946_2337">
<rect width="24" height="24" fill="white"/>
</clipPath>
</defs>
</svg>
