<svg width="16" height="16" viewBox="0 0 16 16" fill="none" xmlns="http://www.w3.org/2000/svg">
<path d="M8.68539 1.33301C9.43539 1.33501 9.81605 1.33901 10.1447 1.34834L10.2741 1.35301C10.4234 1.35834 10.5707 1.36501 10.7487 1.37301C11.4581 1.40634 11.9421 1.51834 12.3667 1.68301C12.8067 1.85234 13.1774 2.08167 13.5481 2.45167C13.8872 2.78483 14.1495 3.18799 14.3167 3.63301C14.4814 4.05767 14.5934 4.54167 14.6267 5.25167C14.6347 5.42901 14.6414 5.57634 14.6467 5.72634L14.6507 5.85567C14.6607 6.18367 14.6647 6.56434 14.6661 7.31434L14.6667 7.81168V8.68501C14.6683 9.17128 14.6632 9.65755 14.6514 10.1437L14.6474 10.273C14.6421 10.423 14.6354 10.5703 14.6274 10.7477C14.5941 11.4577 14.4807 11.941 14.3167 12.3663C14.1495 12.8114 13.8872 13.2145 13.5481 13.5477C13.2149 13.8868 12.8117 14.1491 12.3667 14.3163C11.9421 14.481 11.4581 14.593 10.7487 14.6263L10.2741 14.6463L10.1447 14.6503C9.81605 14.6597 9.43539 14.6643 8.68539 14.6657L8.18805 14.6663H7.31539C6.82889 14.6681 6.3424 14.6629 5.85605 14.651L5.72672 14.647C5.56846 14.641 5.41024 14.6341 5.25205 14.6263C4.54272 14.593 4.05872 14.481 3.63339 14.3163C3.18861 14.149 2.78568 13.8867 2.45272 13.5477C2.11335 13.2146 1.85079 12.8114 1.68339 12.3663C1.51872 11.9417 1.40672 11.4577 1.37339 10.7477L1.35339 10.273L1.35005 10.1437C1.33776 9.65755 1.33221 9.17128 1.33339 8.68501V7.31434C1.33154 6.82807 1.33643 6.34181 1.34805 5.85567L1.35272 5.72634C1.35805 5.57634 1.36472 5.42901 1.37272 5.25167C1.40605 4.54167 1.51805 4.05834 1.68272 3.63301C1.85052 3.18781 2.11354 2.78463 2.45339 2.45167C2.78616 2.11271 3.18885 1.85039 3.63339 1.68301C4.05872 1.51834 4.54205 1.40634 5.25205 1.37301C5.42939 1.36501 5.57739 1.35834 5.72672 1.35301L5.85605 1.34901C6.34218 1.33716 6.82845 1.33205 7.31472 1.33367L8.68539 1.33301ZM8.00005 4.66634C7.116 4.66634 6.26815 5.01753 5.64303 5.64265C5.01791 6.26777 4.66672 7.11562 4.66672 7.99967C4.66672 8.88373 5.01791 9.73158 5.64303 10.3567C6.26815 10.9818 7.116 11.333 8.00005 11.333C8.88411 11.333 9.73195 10.9818 10.3571 10.3567C10.9822 9.73158 11.3334 8.88373 11.3334 7.99967C11.3334 7.11562 10.9822 6.26777 10.3571 5.64265C9.73195 5.01753 8.88411 4.66634 8.00005 4.66634ZM8.00005 5.99967C8.2627 5.99963 8.52278 6.05132 8.76545 6.15179C9.00811 6.25226 9.22862 6.39954 9.41436 6.58523C9.60011 6.77091 9.74747 6.99137 9.84802 7.234C9.94857 7.47663 10.0003 7.7367 10.0004 7.99934C10.0004 8.26199 9.94874 8.52207 9.84827 8.76473C9.7478 9.0074 9.60052 9.2279 9.41484 9.41365C9.22915 9.5994 9.0087 9.74676 8.76606 9.84731C8.52343 9.94786 8.26336 9.99963 8.00072 9.99967C7.47029 9.99967 6.96158 9.78896 6.58651 9.41389C6.21143 9.03882 6.00072 8.53011 6.00072 7.99967C6.00072 7.46924 6.21143 6.96053 6.58651 6.58546C6.96158 6.21039 7.47029 5.99967 8.00072 5.99967M11.5007 3.66634C11.2797 3.66634 11.0677 3.75414 10.9115 3.91042C10.7552 4.0667 10.6674 4.27866 10.6674 4.49967C10.6674 4.72069 10.7552 4.93265 10.9115 5.08893C11.0677 5.24521 11.2797 5.33301 11.5007 5.33301C11.7217 5.33301 11.9337 5.24521 12.09 5.08893C12.2463 4.93265 12.3341 4.72069 12.3341 4.49967C12.3341 4.27866 12.2463 4.0667 12.09 3.91042C11.9337 3.75414 11.7217 3.66634 11.5007 3.66634Z" fill="white"/>
</svg>
