<svg width="35" height="35" viewBox="0 0 35 35" fill="none" xmlns="http://www.w3.org/2000/svg">
<path d="M19.9732 17.5638C19.9645 18.0182 19.8211 18.4599 19.5612 18.8328C19.3012 19.2056 18.9364 19.4929 18.513 19.6582C18.0895 19.8235 17.6266 19.8594 17.1827 19.7613C16.7389 19.6632 16.3342 19.4355 16.0199 19.1071C15.7056 18.7787 15.4959 18.3644 15.4174 17.9167C15.3388 17.469 15.3949 17.008 15.5787 16.5923C15.7624 16.1765 16.0654 15.8246 16.4493 15.5813C16.8332 15.3379 17.2808 15.214 17.7352 15.2253C18.339 15.2477 18.9104 15.5043 19.3282 15.9409C19.746 16.3774 19.9773 16.9595 19.9732 17.5638Z" fill="url(#paint0_linear_1084_532)"/>
<path d="M21.6162 10.377H13.8334C13.0633 10.377 12.3247 10.6829 11.7802 11.2274C11.2356 11.772 10.9297 12.5105 10.9297 13.2806V21.2385C10.9297 21.6198 11.0048 21.9974 11.1507 22.3497C11.2966 22.702 11.5105 23.0221 11.7802 23.2917C12.0498 23.5613 12.3699 23.7752 12.7222 23.9211C13.0745 24.0671 13.452 24.1422 13.8334 24.1422H21.6162C21.9975 24.1422 22.3751 24.0671 22.7274 23.9211C23.0797 23.7752 23.3998 23.5613 23.6694 23.2917C23.939 23.0221 24.1529 22.702 24.2989 22.3497C24.4448 21.9974 24.5199 21.6198 24.5199 21.2385V13.295C24.5214 12.9126 24.4474 12.5336 24.3022 12.1798C24.157 11.8261 23.9434 11.5044 23.6737 11.2333C23.4039 10.9623 23.0833 10.7471 22.7303 10.6001C22.3772 10.4532 21.9986 10.3773 21.6162 10.377ZM17.7241 21.4566C16.9536 21.4739 16.1955 21.2614 15.5464 20.846C14.8973 20.4306 14.3866 19.8312 14.0797 19.1244C13.7727 18.4175 13.6833 17.6352 13.8229 16.8773C13.9625 16.1194 14.3248 15.4203 14.8634 14.8692C15.4021 14.3181 16.0928 13.94 16.8473 13.7831C17.6018 13.6263 18.3859 13.6978 19.0996 13.9885C19.8133 14.2793 20.4242 14.7761 20.8542 15.4156C21.2843 16.055 21.5141 16.8081 21.5143 17.5788C21.5206 18.0824 21.4275 18.5823 21.2403 19.0499C21.0531 19.5175 20.7755 19.9436 20.4235 20.3038C20.0714 20.6639 19.6518 20.9512 19.1886 21.149C18.7254 21.3468 18.2277 21.4513 17.7241 21.4566ZM21.9361 13.7024C21.8415 13.7024 21.7477 13.6836 21.6605 13.6469C21.5732 13.6103 21.4941 13.5566 21.4278 13.4889C21.3616 13.4213 21.3094 13.3412 21.2745 13.2532C21.2396 13.1652 21.2226 13.0711 21.2245 12.9765C21.2245 12.784 21.301 12.5993 21.4372 12.4632C21.5733 12.3271 21.7579 12.2506 21.9505 12.2506C22.143 12.2506 22.3276 12.3271 22.4638 12.4632C22.5999 12.5993 22.6764 12.784 22.6764 12.9765C22.6792 13.079 22.6599 13.1809 22.6197 13.2752C22.5795 13.3695 22.5194 13.454 22.4436 13.523C22.3677 13.5919 22.2778 13.6436 22.18 13.6746C22.0823 13.7056 21.979 13.7151 21.8773 13.7024H21.9361Z" fill="url(#paint1_linear_1084_532)"/>
<path d="M17.7306 2.86932C13.9258 2.8503 10.2692 4.34352 7.56532 7.02051C4.86142 9.6975 3.3317 13.339 3.31268 17.1438C3.29366 20.9487 4.78688 24.6053 7.46387 27.3092C10.1409 30.0131 13.7823 31.5428 17.5872 31.5618C19.4712 31.5712 21.3385 31.2095 23.0827 30.4972C24.8269 29.7849 26.4137 28.7361 27.7525 27.4106C29.0914 26.0851 30.156 24.5089 30.8857 22.7719C31.6153 21.0349 31.9957 19.1713 32.0052 17.2873C32.0146 15.4033 31.6528 13.5359 30.9406 11.7918C30.2283 10.0476 29.1795 8.46079 27.854 7.12196C26.5285 5.78313 24.9522 4.71848 23.2153 3.98881C21.4783 3.25914 19.6146 2.87874 17.7306 2.86932ZM26.4431 21.0919C26.4471 21.7355 26.3233 22.3735 26.0789 22.969C25.8345 23.5644 25.4743 24.1054 25.0193 24.5605C24.5642 25.0157 24.0233 25.3761 23.428 25.6207C22.8326 25.8652 22.1947 25.9892 21.5511 25.9854H13.9131C13.2695 25.9894 12.6315 25.8656 12.0361 25.6212C11.4406 25.3768 10.8997 25.0166 10.4445 24.5616C9.9893 24.1065 9.62897 23.5656 9.38438 22.9703C9.13979 22.3749 9.0158 21.737 9.01961 21.0933V13.454C9.01562 12.8104 9.13941 12.1723 9.38383 11.5769C9.62824 10.9815 9.98842 10.4405 10.4435 9.98534C10.8985 9.53016 11.4394 9.16983 12.0347 8.92524C12.6301 8.68065 13.2681 8.55666 13.9117 8.56047H21.5511C22.1946 8.55667 22.8324 8.6806 23.4277 8.9251C24.0229 9.16961 24.5637 9.52981 25.0188 9.98484C25.4738 10.4399 25.834 10.9807 26.0785 11.5759C26.323 12.1712 26.4469 12.809 26.4431 13.4525V21.0919Z" fill="url(#paint2_linear_1084_532)"/>
<defs>
<linearGradient id="paint0_linear_1084_532" x1="15.3828" y1="17.52" x2="19.9732" y2="17.52" gradientUnits="userSpaceOnUse">
<stop stop-color="#06D5B9"/>
<stop offset="1" stop-color="#00C1D8"/>
</linearGradient>
<linearGradient id="paint1_linear_1084_532" x1="10.9297" y1="17.2596" x2="24.5199" y2="17.2596" gradientUnits="userSpaceOnUse">
<stop stop-color="#06D5B9"/>
<stop offset="1" stop-color="#00C1D8"/>
</linearGradient>
<linearGradient id="paint2_linear_1084_532" x1="3.3125" y1="17.2156" x2="32.0053" y2="17.2156" gradientUnits="userSpaceOnUse">
<stop stop-color="#06D5B9"/>
<stop offset="1" stop-color="#00C1D8"/>
</linearGradient>
</defs>
</svg>
