<svg width="31" height="31" viewBox="0 0 31 31" fill="none" xmlns="http://www.w3.org/2000/svg">
<g clip-path="url(#clip0_1084_529)">
<path d="M15.8406 0.613281C7.79961 0.613281 1.28125 7.13164 1.28125 15.1727C1.28125 23.2137 7.79961 29.732 15.8406 29.732C23.8817 29.732 30.4 23.2137 30.4 15.1727C30.4 7.13164 23.8817 0.613281 15.8406 0.613281ZM12.2766 21.2072H9.32834V11.7194H12.2766V21.2072ZM10.7843 10.5546C9.85309 10.5546 9.251 9.89489 9.251 9.07896C9.251 8.24634 9.87129 7.60634 10.8222 7.60634C11.7731 7.60634 12.3555 8.24634 12.3737 9.07896C12.3737 9.89489 11.7731 10.5546 10.7843 10.5546ZM23.0445 21.2072H20.0962V15.9492C20.0962 14.7253 19.6685 13.8942 18.6024 13.8942C17.788 13.8942 17.3042 14.4568 17.0903 14.9983C17.0115 15.1909 16.9917 15.4639 16.9917 15.7353V21.2057H14.0419V14.745C14.0419 13.5605 14.004 12.5702 13.9646 11.7178H16.5261L16.6611 13.0358H16.7203C17.1085 12.417 18.0594 11.504 19.6503 11.504C21.5901 11.504 23.0445 12.8037 23.0445 15.5973V21.2072Z" fill="url(#paint0_linear_1084_529)"/>
</g>
<defs>
<linearGradient id="paint0_linear_1084_529" x1="1.28125" y1="15.1727" x2="30.4" y2="15.1727" gradientUnits="userSpaceOnUse">
<stop stop-color="#06D5B9"/>
<stop offset="1" stop-color="#00C1D8"/>
</linearGradient>
<clipPath id="clip0_1084_529">
<rect width="30.332" height="30.332" fill="white" transform="translate(0.664062 0.0078125)"/>
</clipPath>
</defs>
</svg>
