<svg width="35" height="35" viewBox="0 0 35 35" fill="none" xmlns="http://www.w3.org/2000/svg">
<path d="M17.2056 2.86914C14.3682 2.86914 11.5945 3.71053 9.23528 5.28692C6.87605 6.8633 5.03726 9.10388 3.95142 11.7253C2.86559 14.3467 2.58149 17.2313 3.13504 20.0142C3.68859 22.7971 5.05494 25.3533 7.0613 27.3597C9.06765 29.3661 11.6239 30.7324 14.4068 31.286C17.1897 31.8395 20.0743 31.5554 22.6957 30.4696C25.3171 29.3837 27.5577 27.5449 29.1341 25.1857C30.7105 22.8265 31.5519 20.0528 31.5519 17.2154C31.5481 13.4117 30.0354 9.76487 27.3457 7.07525C24.6561 4.38563 21.0093 2.87294 17.2056 2.86914ZM25.7258 13.9344V14.8612C25.7259 14.9321 25.7117 15.0023 25.6841 15.0677C25.6565 15.133 25.6162 15.1922 25.5653 15.2417C25.5145 15.2911 25.4543 15.3299 25.3882 15.3558C25.3222 15.3816 25.2516 15.3939 25.1807 15.392C23.666 15.285 22.2168 14.7319 21.016 13.8024V20.5853C21.0156 21.336 20.8658 22.0791 20.5751 22.7713C20.2845 23.4634 19.8589 24.0907 19.3231 24.6166C18.783 25.1562 18.1406 25.5826 17.4336 25.8708C16.7266 26.1591 15.9692 26.3033 15.2058 26.2951C13.6705 26.2929 12.197 25.6905 11.0999 24.6166C10.4018 23.9128 9.89893 23.0393 9.64084 22.0822C9.38275 21.1251 9.37831 20.1172 9.62794 19.1579C9.85604 18.2368 10.3166 17.3904 10.9664 16.7003C11.4511 16.108 12.062 15.6314 12.7545 15.3055C13.4471 14.9796 14.2037 14.8126 14.969 14.8167H16.1454V17.2599C16.1459 17.3308 16.1313 17.4011 16.1026 17.4659C16.0738 17.5308 16.0315 17.5888 15.9786 17.636C15.9256 17.6833 15.8632 17.7187 15.7955 17.7399C15.7278 17.7611 15.6564 17.7677 15.5859 17.7591C14.9029 17.5539 14.1669 17.622 13.533 17.9489C12.8992 18.2758 12.417 18.8361 12.1882 19.5116C11.9594 20.187 12.0018 20.925 12.3064 21.5698C12.6111 22.2147 13.1542 22.716 13.8213 22.9682C14.2087 23.1906 14.6419 23.3211 15.0867 23.3513C15.431 23.3656 15.7753 23.3226 16.1024 23.2193C16.6484 23.0351 17.1234 22.685 17.4611 22.218C17.7987 21.751 17.9823 21.1903 17.9861 20.614V8.25472C17.9861 8.11799 18.0403 7.98684 18.1368 7.89003C18.2334 7.79321 18.3644 7.73863 18.5011 7.73825H20.5311C20.663 7.73842 20.7898 7.78904 20.8856 7.87973C20.9813 7.97043 21.0388 8.09433 21.0461 8.22603C21.1201 8.85902 21.3211 9.47056 21.6372 10.024C21.9532 10.5774 22.3777 11.0613 22.8853 11.4468C23.5712 11.9616 24.3858 12.2773 25.2395 12.3592C25.3674 12.3701 25.487 12.427 25.5761 12.5193C25.6653 12.6116 25.7179 12.7331 25.7244 12.8613L25.7258 13.9344Z" fill="url(#paint0_linear_1084_540)"/>
<defs>
<linearGradient id="paint0_linear_1084_540" x1="2.85938" y1="17.2154" x2="31.5519" y2="17.2154" gradientUnits="userSpaceOnUse">
<stop stop-color="#06D5B9"/>
<stop offset="1" stop-color="#00C1D8"/>
</linearGradient>
</defs>
</svg>
